<svg xmlns="http://www.w3.org/2000/svg" width="32" height="32" viewBox="0 0 32 32">
  <path d="M16 28c-0.5 0-1-0.18-1.4-0.52C8.76 22.52 5 18.95 5 13.9C5 10.15 7.87 7 11.3 7c1.96 0 3.85 0.95 4.7 2.42C16.85 7.95 18.74 7 20.7 7C24.13 7 27 10.15 27 13.9c0 5.05-3.76 8.62-9.6 13.58c-0.4 0.34-0.9 0.52-1.4 0.52z" fill="#233142"/>
  <path d="M16 28c-0.5 0-1-0.18-1.4-0.52C8.76 22.52 5 18.95 5 13.9C5 10.15 7.87 7 11.3 7c1.96 0 3.85 0.95 4.7 2.42C16.85 7.95 18.74 7 20.7 7C24.13 7 27 10.15 27 13.9c0 5.05-3.76 8.62-9.6 13.58c-0.4 0.34-0.9 0.52-1.4 0.52z" fill="none" stroke="#7ea0b8" stroke-width="1.5"/>
</svg>
